<?xml version="1.0" encoding="UTF-8"?>
<svg width="14px" height="15px" viewBox="0 0 14 15" version="1.1" xmlns="http://www.w3.org/2000/svg" xmlns:xlink="http://www.w3.org/1999/xlink">
    <!-- Generator: Sketch 53.2 (72643) - https://sketchapp.com -->
    <title>i_编码</title>
    <desc>Created with Sketch.</desc>
    <g id="课程相关" stroke="none" stroke-width="1" fill="none" fill-rule="evenodd">
        <g id="2_1-课程详情-介绍" transform="translate(-1073.000000, -566.000000)" fill-rule="nonzero">
            <g id="其他信息" transform="translate(1044.000000, 346.000000)">
                <g id="i_编码" transform="translate(29.000000, 220.000000)">
                    <rect id="矩形" fill="#000000" opacity="0" x="0" y="0" width="14" height="14"></rect>
                    <path d="M14,0.477030191 L14,1.47669154 L14,1.47703019 L14,11.4684542 L8.91760536,11.4653427 L7.00146403,13.4816163 L5.0868467,11.4653427 L0.00179917188,11.4629226 L0.00179917188,0.481771519 L11.0017992,0.478045711 L11.0017992,1.47703019 L13,1.47703019 L13.5000847,1.47703019 L14,1.47703019 Z M13,1.47736896 L1.00179917,1.48143287 L1.00179917,10.4633984 L5.51648228,10.465547 L7.00175247,12.0296774 L8.48864885,10.4650799 L13,10.4678418 L13,1.47736896 Z" id="合并形状" fill="#56667B"></path>
                    <polygon id="路径" fill="#56667B" points="8.26802635 3.48351781 8.26802635 6.40674183 5.69541216 3.48351781 4.79647932 3.48351781 4.79647932 8.05677104 5.79554446 8.05677104 5.79554446 5.15234438 8.36815863 8.05677104 9.26709149 8.05677104 9.26709149 3.48351781"></polygon>
                </g>
            </g>
        </g>
    </g>
</svg>